<svg
                  width="32"
                  height="32"
                  viewBox="0 0 32 32"
                  fill="none"
                  xmlns="http://www.w3.org/2000/svg"
                >
                  <circle
                    cx="16"
                    cy="16"
                    r="15.5"
                    fill="white"
                    stroke="#1E1E1E"
                    stroke-dasharray="3 2"
                  ></circle>
                  <path
                    fill-rule="evenodd"
                    clip-rule="evenodd"
                    d="M5.18359 27.8003C7.86417 23.8251 11.7099 21.334 15.9824 21.334C20.2579 21.334 24.1061 23.8287 26.787 27.8089C26.5393 28.0355 26.2845 28.2544 26.0229 28.4652C25.8682 28.2324 25.7095 28.005 25.5469 27.7832C23.0307 24.3521 19.6374 22.334 15.9824 22.334C12.3274 22.334 8.93406 24.3521 6.4179 27.7832C6.25714 28.0024 6.10018 28.2272 5.94718 28.4573C5.68575 28.2462 5.43109 28.0271 5.18359 27.8003Z"
                    fill="#1E1E1E"
                  ></path>
                  <path
                    d="M16 17.8333C18.5548 17.8333 20.5 15.4451 20.5 12.6667C20.5 9.88828 18.5548 7.5 16 7.5C13.4452 7.5 11.5 9.88828 11.5 12.6667C11.5 15.4451 13.4452 17.8333 16 17.8333Z"
                    stroke="#1E1E1E"
                  ></path>
                </svg>