 <svg
                      width="32"
                      height="32"
                      viewBox="0 0 32 32"
                      fill="none"
                      xmlns="http://www.w3.org/2000/svg"
                    >
                      <path
                        d="M13.1611 2.82663C13.1344 2.74663 13.1211 2.66663 13.1211 2.58663V1.53329C13.1211 1.05329 13.5078 0.666626 13.9878 0.666626H18.1211C18.6011 0.666626 18.9878 1.05329 18.9878 1.53329V2.58663C18.9878 2.67996 18.9744 2.75996 18.9478 2.83996"
                        stroke="#1E1E1E"
                        strokeWidth="0.9816"
                        strokeMiterlimit="10"
                      ></path>{" "}
                      <path
                        d="M22.466 31.3333H9.55932C6.46599 31.3333 3.97266 28.8266 3.97266 25.7466L4.98599 8.42663C4.98599 5.3333 7.49266 2.83997 10.5727 2.83997H21.426C24.5193 2.83997 27.0127 5.34663 27.0127 8.42663L28.0393 25.7333C28.0527 28.8266 25.5593 31.3333 22.466 31.3333Z"
                        fill="#33FFFF"
                        stroke="#1E1E1E"
                        strokeWidth="0.4999"
                        strokeMiterlimit="10"
                      ></path>{" "}
                      <path
                        d="M28.052 25.7333C28.052 28.8266 25.5453 31.32 22.4653 31.32H9.54531C8.85198 31.32 8.18531 31.2 7.57198 30.96C6.23865 30.4533 5.14531 29.4533 4.51865 28.1866C4.15865 27.44 3.94531 26.6133 3.94531 25.72L4.98531 8.42663C4.98531 5.3333 7.49198 2.83997 10.572 2.83997H21.4253C24.5186 2.83997 27.012 5.34663 27.012 8.42663L28.052 25.7333Z"
                        fill="white"
                        stroke="#1E1E1E"
                        strokeWidth="0.9816"
                        strokeMiterlimit="10"
                      ></path>{" "}
                      <path
                        d="M13.1593 2.82666C13.1593 2.82666 13.8526 24.7067 7.58594 30.9733"
                        stroke="#1E1E1E"
                        strokeWidth="0.9816"
                        strokeMiterlimit="10"
                      ></path>{" "}
                      <path
                        d="M4.49219 28.32C10.3855 20.6133 9.53219 2.82666 9.53219 2.82666"
                        stroke="#1E1E1E"
                        strokeWidth="0.9816"
                        strokeMiterlimit="10"
                      ></path>{" "}
                      <path
                        d="M19.0149 2.82666C19.0149 2.82666 18.3216 24.7067 24.5883 30.9733"
                        stroke="#1E1E1E"
                        strokeWidth="0.9816"
                        strokeMiterlimit="10"
                      ></path>{" "}
                      <path
                        d="M22.6524 2.82666C22.6524 2.82666 21.7991 20.6133 27.6924 28.3067"
                        stroke="#1E1E1E"
                        strokeWidth="0.9816"
                        strokeMiterlimit="10"
                      ></path>{" "}
                      <path
                        d="M13.0152 10.7067C13.0152 10.7067 12.7485 14.68 12.5352 16.28C12.3352 17.7733 11.4018 27.5333 7.58849 30.9733C6.25516 30.4667 5.16182 29.4667 4.53516 28.2C5.20182 27.1867 6.81516 24.5467 7.62849 21.5867C8.66849 17.7867 9.38849 10.7067 9.38849 10.7067H13.0152Z"
                        fill="#1E1E1E"
                      ></path>{" "}
                      <path
                        d="M19.3594 10.7067C19.3594 10.7067 19.626 14.68 19.8394 16.28C20.0394 17.7733 20.9727 27.5333 24.786 30.9733C26.1194 30.4667 27.2127 29.4667 27.8394 28.2C27.1727 27.1867 25.5594 24.5467 24.746 21.5867C23.706 17.7867 22.986 10.7067 22.986 10.7067H19.3594Z"
                        fill="#1E1E1E"
                      ></path>{" "}
                      <path
                        d="M28.0524 24.6C28.1324 24.6267 28.2124 24.64 28.3057 24.64H29.7857C30.2657 24.64 30.6524 24.1867 30.6524 23.64L30.2124 18.88C30.2124 18.3333 29.8257 17.88 29.3457 17.88H28.2924C28.1991 17.88 28.1191 17.8933 28.0391 17.92"
                        stroke="#1E1E1E"
                        strokeWidth="0.9816"
                        strokeMiterlimit="10"
                      ></path>{" "}
                      <path
                        d="M3.95937 24.6C3.87937 24.6267 3.79937 24.64 3.70604 24.64H2.22604C1.74604 24.64 1.35938 24.1867 1.35938 23.64L1.79937 18.88C1.79937 18.3333 2.18604 17.88 2.66604 17.88H3.71937C3.81271 17.88 3.89271 17.8933 3.97271 17.92"
                        stroke="#1E1E1E"
                        strokeWidth="0.9816"
                        strokeMiterlimit="10"
                      ></path>
                    </svg>