<svg
                width="188"
                height="29"
                fill="none"
                viewBox="0 0 188 29"
                xmlns="http://www.w3.org/2000/svg"
              >
                <path
                  d="M34.966 4.545h2.47l-4.564 17.874-4.564-17.874h2.47V0H20.554v4.545h2.743l6.523 24.451h6.545l6.086-24.451h2.735V0h-10.22v4.545zM13.758.003H5.25C1.767.003 0 1.747 0 5.187v17.696c0 1.346.102 3.047.896 4.264.812 1.245 2.236 1.85 4.355 1.85h8.505c1.449 0 2.76-.549 3.694-1.548 1.019-1.09 1.557-2.669 1.557-4.566V6.117c.001-3.485-2.256-6.114-5.25-6.114zm.659 24.452H4.55V4.545h9.866v19.91zM93.559 24.455l-3.495-9.595.104-.04a5.072 5.072 0 001.427-.814c.95-.772 2.085-2.281 2.085-5.094V5.186c0-2.19-.36-3.45-1.202-4.21C91.583.166 90.195 0 88.388 0H72.14v4.545h2.62v19.909h-2.62V29h9.784v-4.545h-2.62v-4.817l6.608-3.11 3.02 7.927h-2.384V29h9.785v-4.545H93.56zm-4.388-14.301v.072l-.065.03-9.8 4.311V4.545h9.865v5.609zM183.164 8.04h4.544V0h-21.575v4.545h2.621v19.91h-2.621V29h21.551v-8.038h-4.52v3.493h-9.866v-7.682h5.062v2.62h4.544V9.607h-4.544v2.619h-5.062V4.545h9.866v3.494zM96.184 8.034l4.578.04-.03-3.53h3.749v19.911h-3.057V29l10.663-.004-.006-4.54h-3.056V4.544h3.753v3.49l4.555.04V.003L96.183 0v8.034zM161.044 24.455V4.545h2.619V0l-6.999.004-8.365 15.554L140.227.004 132.918 0v4.545h2.619v19.91h-2.619V29h10.221v-4.545h-3.056V10.067l7.018 13.255h2.379l7.019-13.255v14.388h-2.62V29l9.739-.004.052-4.54h-2.626zM47.656 4.545h2.62v19.91h-2.62V29h21.551v-8.038h-4.52v3.493h-9.865v-7.682h5.061v2.62h4.545V9.607h-4.545v2.619h-5.061V4.545h9.865v3.494h4.545V0H47.656v4.545zM127.392 24.455V4.545h3.056V0h-10.659v4.545h3.057v19.91h-3.057V29l10.663-.004-.004-4.54h-3.056z"
                  fill="#1E1E1E"
                ></path>
              </svg>