<svg width="17" height="17" viewBox="0 0 17 17" fill="none" xmlns="http://www.w3.org/2000/svg"><path d="M15.9022 15.427L11.0888 10.6135C11.9989 9.59214 12.5551 8.25056 12.5551 6.77753C12.5551 3.59213 9.96292 1 6.77753 1C3.59213 1 1 3.59213 1 6.77753C1 9.96292 3.59213 12.5551 6.77753 12.5551C8.25056 12.5551 9.58876 11.9955 10.6101 11.0888L15.4236 15.9022C15.491 15.9697 15.5753 16 15.6629 16C15.7506 16 15.8348 15.9663 15.9022 15.9022C16.0337 15.7708 16.0337 15.5584 15.9022 15.427ZM6.77753 11.8809C3.96292 11.8809 1.67416 9.59214 1.67416 6.77753C1.67416 3.96292 3.96292 1.67416 6.77753 1.67416C9.59214 1.67416 11.8809 3.96292 11.8809 6.77753C11.8809 9.59214 9.59214 11.8809 6.77753 11.8809Z" fill="#1E1E1E" stroke="#1E1E1E" stroke-width="0.4"></path></svg>